# xmcd CD database file
#
# Track frame offsets:
#	150
#	14245
#	38100
#	56775
#	74475
#	93525
#	111075
#	124650
#	138300
#	154425
#	171825
#	185550
#	203250
#	215400
#	226200
#	238125
#	250275
#	268200
#
# Disc length: 3782 seconds
#
# Revision: 0
# Processed by: cddbd v1.4PL0 Copyright (c) Steve Scherf et al.
# Submitted via: CDex 1.50
#
DISCID=110ec412
DTITLE=Bent Persson - Louis Armstrong's 50 Choruses for Cornet 1927, Vol. 3-4
DYEAR=1993
DGENRE=Jazz
TTITLE0=Copenhagen
TTITLE1=Someday Sweetheart
TTITLE2=Sidewalk Blues
TTITLE3=Jackass Blues
TTITLE4=Easy Rider
TTITLE5=The Chant
TTITLE6=Sugar Foot Stomp
TTITLE7=Grandpa's Spells
TTITLE8=Dixieland Blues
TTITLE9=Chicago Breakdown
TTITLE10=29th and Dearborn
TTITLE11=Chattanooga Stomp
TTITLE12=Mr. Jelly Lord
TTITLE13=Darktown Shuffle
TTITLE14=Panama Blues
TTITLE15=Dallas Stomp
TTITLE16=Stomp your Stuff
TTITLE17=Tampeekoe
EXTD=YEAR: 1993
EXTT0=
EXTT1=
EXTT2=
EXTT3=
EXTT4=
EXTT5=
EXTT6=
EXTT7=
EXTT8=
EXTT9=
EXTT10=
EXTT11=
EXTT12=
EXTT13=
EXTT14=
EXTT15=
EXTT16=
EXTT17=
PLAYORDER=
